<mxfile host="app.diagrams.net" modified="2021-08-26T03:36:49.388Z" agent="5.0 (Macintosh; Intel Mac OS X 10_15_7) AppleWebKit/537.36 (KHTML, like Gecko) Chrome/92.0.4515.159 Safari/537.36" etag="6wGjwtgiuMJ1GuFA_GZl" version="14.9.8" type="github">
  <diagram id="cuufkTFhKXvPpfbD7Z3N" name="第 1 页">
    <mxGraphModel dx="1298" dy="777" grid="1" gridSize="10" guides="1" tooltips="1" connect="1" arrows="1" fold="1" page="1" pageScale="1" pageWidth="827" pageHeight="1169" math="0" shadow="0">
      <root>
        <mxCell id="0" />
        <mxCell id="1" parent="0" />
        <mxCell id="QbxbpcJ4an9Vn-Q8Qio1-23" value="" style="group;fontFamily=Nunito;fontSource=https%3A%2F%2Ffonts.googleapis.com%2Fcss%3Ffamily%3DNunito;" parent="1" vertex="1" connectable="0">
          <mxGeometry x="140" y="270" width="540" height="70" as="geometry" />
        </mxCell>
        <mxCell id="QbxbpcJ4an9Vn-Q8Qio1-14" value="&lt;font&gt;msg size&lt;/font&gt;" style="shape=dimension;whiteSpace=wrap;html=1;align=center;points=[];verticalAlign=bottom;spacingBottom=-5;labelBackgroundColor=#ffffff;fontFamily=Nunito;fontSource=https%3A%2F%2Ffonts.googleapis.com%2Fcss%3Ffamily%3DNunito;" parent="QbxbpcJ4an9Vn-Q8Qio1-23" vertex="1">
          <mxGeometry x="160" y="30" width="80" height="40" as="geometry" />
        </mxCell>
        <mxCell id="QbxbpcJ4an9Vn-Q8Qio1-15" value="&lt;font&gt;requestId&lt;/font&gt;" style="shape=dimension;whiteSpace=wrap;html=1;align=center;points=[];verticalAlign=bottom;spacingBottom=-5;labelBackgroundColor=#ffffff;fontFamily=Nunito;fontSource=https%3A%2F%2Ffonts.googleapis.com%2Fcss%3Ffamily%3DNunito;" parent="QbxbpcJ4an9Vn-Q8Qio1-23" vertex="1">
          <mxGeometry y="30" width="160" height="40" as="geometry" />
        </mxCell>
        <mxCell id="QbxbpcJ4an9Vn-Q8Qio1-16" value="&lt;font&gt;error msg&lt;/font&gt;" style="shape=dimension;whiteSpace=wrap;html=1;align=center;points=[];verticalAlign=bottom;spacingBottom=-5;labelBackgroundColor=#ffffff;fontFamily=Nunito;fontSource=https%3A%2F%2Ffonts.googleapis.com%2Fcss%3Ffamily%3DNunito;" parent="QbxbpcJ4an9Vn-Q8Qio1-23" vertex="1">
          <mxGeometry x="240" y="30" width="300" height="40" as="geometry" />
        </mxCell>
        <mxCell id="QbxbpcJ4an9Vn-Q8Qio1-17" value="&lt;font&gt;8&lt;/font&gt;" style="text;html=1;align=center;verticalAlign=middle;resizable=0;points=[];autosize=1;strokeColor=none;fontFamily=Nunito;fontSource=https%3A%2F%2Ffonts.googleapis.com%2Fcss%3Ffamily%3DNunito;" parent="QbxbpcJ4an9Vn-Q8Qio1-23" vertex="1">
          <mxGeometry x="70" y="40" width="20" height="20" as="geometry" />
        </mxCell>
        <mxCell id="QbxbpcJ4an9Vn-Q8Qio1-18" value="4" style="text;html=1;align=center;verticalAlign=middle;resizable=0;points=[];autosize=1;strokeColor=none;fontFamily=Nunito;fontSource=https%3A%2F%2Ffonts.googleapis.com%2Fcss%3Ffamily%3DNunito;" parent="QbxbpcJ4an9Vn-Q8Qio1-23" vertex="1">
          <mxGeometry x="190" y="40" width="20" height="20" as="geometry" />
        </mxCell>
        <mxCell id="QbxbpcJ4an9Vn-Q8Qio1-19" value="msg size" style="text;html=1;align=center;verticalAlign=middle;resizable=0;points=[];autosize=1;strokeColor=none;fontFamily=Nunito;fontSource=https%3A%2F%2Ffonts.googleapis.com%2Fcss%3Ffamily%3DNunito;" parent="QbxbpcJ4an9Vn-Q8Qio1-23" vertex="1">
          <mxGeometry x="360" y="40" width="60" height="20" as="geometry" />
        </mxCell>
        <mxCell id="QbxbpcJ4an9Vn-Q8Qio1-20" value="&lt;font data-font-src=&quot;https://fonts.googleapis.com/css?family=Nunito&quot;&gt;RpcFailure&lt;/font&gt;" style="text;html=1;align=center;verticalAlign=middle;resizable=0;points=[];autosize=1;strokeColor=none;fontSize=20;fontFamily=Nunito;fontSource=https%3A%2F%2Ffonts.googleapis.com%2Fcss%3Ffamily%3DNunito;" parent="QbxbpcJ4an9Vn-Q8Qio1-23" vertex="1">
          <mxGeometry x="205" width="110" height="30" as="geometry" />
        </mxCell>
        <mxCell id="QbxbpcJ4an9Vn-Q8Qio1-24" value="" style="group;fontFamily=Nunito;fontSource=https%3A%2F%2Ffonts.googleapis.com%2Fcss%3Ffamily%3DNunito;" parent="1" vertex="1" connectable="0">
          <mxGeometry x="140" y="50" width="540" height="70" as="geometry" />
        </mxCell>
        <mxCell id="QbxbpcJ4an9Vn-Q8Qio1-25" value="&lt;font&gt;body size&lt;/font&gt;" style="shape=dimension;whiteSpace=wrap;html=1;align=center;points=[];verticalAlign=bottom;spacingBottom=-5;labelBackgroundColor=#ffffff;fontFamily=Nunito;fontSource=https%3A%2F%2Ffonts.googleapis.com%2Fcss%3Ffamily%3DNunito;" parent="QbxbpcJ4an9Vn-Q8Qio1-24" vertex="1">
          <mxGeometry x="160" y="30" width="80" height="40" as="geometry" />
        </mxCell>
        <mxCell id="QbxbpcJ4an9Vn-Q8Qio1-26" value="&lt;font data-font-src=&quot;https://fonts.googleapis.com/css?family=Nunito&quot;&gt;requestId&lt;/font&gt;" style="shape=dimension;whiteSpace=wrap;html=1;align=center;points=[];verticalAlign=bottom;spacingBottom=-5;labelBackgroundColor=#ffffff;fontFamily=Nunito;fontSource=https%3A%2F%2Ffonts.googleapis.com%2Fcss%3Ffamily%3DNunito;" parent="QbxbpcJ4an9Vn-Q8Qio1-24" vertex="1">
          <mxGeometry y="30" width="160" height="40" as="geometry" />
        </mxCell>
        <mxCell id="QbxbpcJ4an9Vn-Q8Qio1-27" value="&lt;font&gt;body&lt;/font&gt;" style="shape=dimension;whiteSpace=wrap;html=1;align=center;points=[];verticalAlign=bottom;spacingBottom=-5;labelBackgroundColor=#ffffff;fontFamily=Nunito;fontSource=https%3A%2F%2Ffonts.googleapis.com%2Fcss%3Ffamily%3DNunito;" parent="QbxbpcJ4an9Vn-Q8Qio1-24" vertex="1">
          <mxGeometry x="240" y="30" width="300" height="40" as="geometry" />
        </mxCell>
        <mxCell id="QbxbpcJ4an9Vn-Q8Qio1-28" value="&lt;font&gt;8&lt;/font&gt;" style="text;html=1;align=center;verticalAlign=middle;resizable=0;points=[];autosize=1;strokeColor=none;fontFamily=Nunito;fontSource=https%3A%2F%2Ffonts.googleapis.com%2Fcss%3Ffamily%3DNunito;" parent="QbxbpcJ4an9Vn-Q8Qio1-24" vertex="1">
          <mxGeometry x="70" y="40" width="20" height="20" as="geometry" />
        </mxCell>
        <mxCell id="QbxbpcJ4an9Vn-Q8Qio1-29" value="4" style="text;html=1;align=center;verticalAlign=middle;resizable=0;points=[];autosize=1;strokeColor=none;fontFamily=Nunito;fontSource=https%3A%2F%2Ffonts.googleapis.com%2Fcss%3Ffamily%3DNunito;" parent="QbxbpcJ4an9Vn-Q8Qio1-24" vertex="1">
          <mxGeometry x="190" y="40" width="20" height="20" as="geometry" />
        </mxCell>
        <mxCell id="QbxbpcJ4an9Vn-Q8Qio1-30" value="body size" style="text;html=1;align=center;verticalAlign=middle;resizable=0;points=[];autosize=1;strokeColor=none;fontFamily=Nunito;fontSource=https%3A%2F%2Ffonts.googleapis.com%2Fcss%3Ffamily%3DNunito;" parent="QbxbpcJ4an9Vn-Q8Qio1-24" vertex="1">
          <mxGeometry x="355" y="40" width="70" height="20" as="geometry" />
        </mxCell>
        <mxCell id="QbxbpcJ4an9Vn-Q8Qio1-31" value="&lt;font data-font-src=&quot;https://fonts.googleapis.com/css?family=Nunito&quot;&gt;RpcRequest&lt;/font&gt;" style="text;html=1;align=center;verticalAlign=middle;resizable=0;points=[];autosize=1;strokeColor=none;fontSize=20;fontFamily=Nunito;fontSource=https%3A%2F%2Ffonts.googleapis.com%2Fcss%3Ffamily%3DNunito;" parent="QbxbpcJ4an9Vn-Q8Qio1-24" vertex="1">
          <mxGeometry x="200" width="120" height="30" as="geometry" />
        </mxCell>
        <mxCell id="QbxbpcJ4an9Vn-Q8Qio1-32" value="" style="group;fontFamily=Nunito;fontSource=https%3A%2F%2Ffonts.googleapis.com%2Fcss%3Ffamily%3DNunito;" parent="1" vertex="1" connectable="0">
          <mxGeometry x="140" y="160" width="540" height="70" as="geometry" />
        </mxCell>
        <mxCell id="QbxbpcJ4an9Vn-Q8Qio1-33" value="&lt;font&gt;body size&lt;/font&gt;" style="shape=dimension;whiteSpace=wrap;html=1;align=center;points=[];verticalAlign=bottom;spacingBottom=-5;labelBackgroundColor=#ffffff;fontFamily=Nunito;fontSource=https%3A%2F%2Ffonts.googleapis.com%2Fcss%3Ffamily%3DNunito;" parent="QbxbpcJ4an9Vn-Q8Qio1-32" vertex="1">
          <mxGeometry x="160" y="30" width="80" height="40" as="geometry" />
        </mxCell>
        <mxCell id="QbxbpcJ4an9Vn-Q8Qio1-34" value="&lt;font&gt;requestId&lt;/font&gt;" style="shape=dimension;whiteSpace=wrap;html=1;align=center;points=[];verticalAlign=bottom;spacingBottom=-5;labelBackgroundColor=#ffffff;fontFamily=Nunito;fontSource=https%3A%2F%2Ffonts.googleapis.com%2Fcss%3Ffamily%3DNunito;" parent="QbxbpcJ4an9Vn-Q8Qio1-32" vertex="1">
          <mxGeometry y="30" width="160" height="40" as="geometry" />
        </mxCell>
        <mxCell id="QbxbpcJ4an9Vn-Q8Qio1-35" value="&lt;font&gt;body&lt;/font&gt;" style="shape=dimension;whiteSpace=wrap;html=1;align=center;points=[];verticalAlign=bottom;spacingBottom=-5;labelBackgroundColor=#ffffff;fontFamily=Nunito;fontSource=https%3A%2F%2Ffonts.googleapis.com%2Fcss%3Ffamily%3DNunito;" parent="QbxbpcJ4an9Vn-Q8Qio1-32" vertex="1">
          <mxGeometry x="240" y="30" width="300" height="40" as="geometry" />
        </mxCell>
        <mxCell id="QbxbpcJ4an9Vn-Q8Qio1-36" value="&lt;font&gt;8&lt;/font&gt;" style="text;html=1;align=center;verticalAlign=middle;resizable=0;points=[];autosize=1;strokeColor=none;fontFamily=Nunito;fontSource=https%3A%2F%2Ffonts.googleapis.com%2Fcss%3Ffamily%3DNunito;" parent="QbxbpcJ4an9Vn-Q8Qio1-32" vertex="1">
          <mxGeometry x="70" y="40" width="20" height="20" as="geometry" />
        </mxCell>
        <mxCell id="QbxbpcJ4an9Vn-Q8Qio1-37" value="4" style="text;html=1;align=center;verticalAlign=middle;resizable=0;points=[];autosize=1;strokeColor=none;fontFamily=Nunito;fontSource=https%3A%2F%2Ffonts.googleapis.com%2Fcss%3Ffamily%3DNunito;" parent="QbxbpcJ4an9Vn-Q8Qio1-32" vertex="1">
          <mxGeometry x="190" y="40" width="20" height="20" as="geometry" />
        </mxCell>
        <mxCell id="QbxbpcJ4an9Vn-Q8Qio1-38" value="body size" style="text;html=1;align=center;verticalAlign=middle;resizable=0;points=[];autosize=1;strokeColor=none;fontFamily=Nunito;fontSource=https%3A%2F%2Ffonts.googleapis.com%2Fcss%3Ffamily%3DNunito;" parent="QbxbpcJ4an9Vn-Q8Qio1-32" vertex="1">
          <mxGeometry x="355" y="40" width="70" height="20" as="geometry" />
        </mxCell>
        <mxCell id="QbxbpcJ4an9Vn-Q8Qio1-39" value="&lt;font data-font-src=&quot;https://fonts.googleapis.com/css?family=Nunito&quot;&gt;RpcResponse&lt;/font&gt;" style="text;html=1;align=center;verticalAlign=middle;resizable=0;points=[];autosize=1;strokeColor=none;fontSize=20;fontFamily=Nunito;fontSource=https%3A%2F%2Ffonts.googleapis.com%2Fcss%3Ffamily%3DNunito;" parent="QbxbpcJ4an9Vn-Q8Qio1-32" vertex="1">
          <mxGeometry x="190" width="140" height="30" as="geometry" />
        </mxCell>
      </root>
    </mxGraphModel>
  </diagram>
</mxfile>
